<svg xmlns="http://www.w3.org/2000/svg" viewBox="0 0 64 64" role="img" aria-labelledby="title"><title id="title">Watchverse bat W</title><rect width="64" height="64" rx="18" fill="#111112"/><path d="M7 18c7 1 12 4 17 10l8 11 8-11c5-6 10-9 17-10-3 6-5 12-5 18l-8-4 2 11-10-5-4 10-4-10-10 5 2-11-8 4c0-6-2-12-5-18Z" fill="#f2eadc"/><path d="M29 31c1-5 3-8 7-10 0 3 2 5 5 7-3 5-6 7-10 7Z" fill="#e23b52"/><circle cx="37" cy="29" r="1.1" fill="#111112"/><path d="M25 51h14l-7 6Z" fill="#e23b52"/><path d="M13 24h5M46 24h5" stroke="#e23b52" stroke-width="2" stroke-linecap="round"/></svg>
