<?xml version='1.0' encoding='UTF-8'?>
<svg xmlns="http://www.w3.org/2000/svg" width="366" height="379" viewBox="0 0 366 379" role="img" aria-labelledby="title desc" shape-rendering="geometricPrecision">
  <title id="title">Watchverse — icona</title>
  <desc id="desc">Versione vettoriale ricostruita dall’immagine raster fornita.</desc>
  <g id="artwork">
    <path id="layer-1" d="M 0,189.5 V 0 H 183 366 V 189.5 379 H 183 0 Z" fill="#ffffff"/>
    <path id="layer-2" d="M 0,189.5 V 0 H 183 366 V 189.5 379 H 183 0 Z m 162.02749,89.84888 c 4.90808,-3.27758 9.19722,-7.93912 11.5618,-12.56564 1.32589,-2.59421 2.41071,-5.21747 2.41071,-5.82945 0,-1.02714 -2.95571,-0.79193 -8.1166,0.64592 -1.30523,0.36364 -9.8834,16.69965 -9.8834,18.82164 0,1.01968 1.48785,0.62349 4.02749,-1.07247 z M 243.233,267.03192 c 5.67574,-6.2719 11.27312,-15.40399 10.35358,-16.89183 -0.60653,-0.98138 -9.42966,-3.63035 -10.04439,-3.01562 C 242.73094,247.93572 234,272.14413 234,273.58225 c 0,2.40504 3.15333,0.16792 9.233,-6.55033 z m -67.66965,-10.629 c 2.64994,-1.25748 3.80784,-2.77909 5.44537,-7.15576 1.14387,-3.05727 1.72235,-5.89032 1.28552,-6.29566 -0.43683,-0.40534 -2.27759,-0.50612 -4.09057,-0.22394 -2.83534,0.44129 -3.70941,1.33134 -6.25,6.36422 -4.53349,8.98079 -3.65566,10.75876 3.60968,7.31114 z m -25.59678,-17.52076 c 4.9346,-10.39172 5.20627,-11.35505 4.15977,-14.75 -2.06241,-6.6906 -2.57645,-6.94316 -6.82108,-3.3513 -2.09289,1.77103 -5.49276,4.12899 -7.55526,5.23992 -2.0625,1.11093 -3.75,2.6589 -3.75,3.43995 0,1.1955 2.5859,8.94411 6.10356,18.28927 0.46582,1.2375 1.23769,2.25 1.71528,2.25 0.47758,0 3.24406,-5.00303 6.14773,-11.11784 z m 106.3899,5.61851 c 1.74204,-1.74203 5.18703,-10.55038 6.16485,-15.76264 0.64524,-3.43941 0.49675,-3.68817 -3.38339,-5.66766 C 256.90589,221.93166 254.44809,221 253.67616,221 c -1.59588,0 -9.18616,20.36579 -8.19062,21.9766 0.57747,0.93437 5.60812,2.73541 8.19303,2.93321 0.64822,0.0496 1.85327,-0.58451 2.6779,-1.40914 z m -73.29073,-5.53585 c 2.15589,-1.1538 2.55618,-5.19884 0.93613,-9.45989 -1.21491,-3.19548 -2.54418,-2.53609 -4.54607,2.2551 -2.826,6.76356 -2.91531,8.23997 -0.49847,8.23997 1.19579,0 3.04457,-0.46583 4.10841,-1.03518 z m -43.18122,-16.90591 c 2.09266,-1.06759 5.2179,-3.55047 6.94498,-5.5175 l 3.14014,-3.57642 -2.35628,-6.2325 C 143.51425,195.89009 142.13135,193 141.04237,193 c -0.58283,0 -2.88185,1.31997 -5.10894,2.93326 -2.22709,1.6133 -5.37319,3.22405 -6.99134,3.57946 -3.72675,0.81853 -3.71739,1.98011 0.10031,12.44083 4.92374,13.49138 4.66949,13.25441 10.84212,10.10536 z m 124.24304,-2.71211 c 1.01114,-1.218 1.37244,-5.14409 1.37244,-14.91396 0,-18.87345 -1.07107,-19.0929 -6.98409,-1.43096 -4.37694,13.07374 -4.39533,14.19759 -0.26591,16.25274 4.14485,2.06282 4.24033,2.06432 5.87756,0.0922 z M 135.53744,192.53924 C 137.75187,190.85021 139,189.05315 139,187.55382 c 0,-2.39938 -5.47852,-16.2919 -7.09962,-18.00333 -0.56172,-0.59301 -2.49536,-0.17412 -5.15023,1.11572 -2.33796,1.13586 -5.71318,2.3864 -7.50049,2.77896 -1.78732,0.39256 -3.24966,1.25075 -3.24966,1.9071 0,1.33468 5.39918,15.65656 7.10139,18.83718 0.90712,1.69497 1.77384,1.95649 5.03462,1.51913 2.16637,-0.29057 5.49702,-1.71677 7.40143,-3.16934 z M 124.9165,168.0426 c 2.11026,-1.07657 4.06442,-2.5505 4.34259,-3.27539 0.45657,-1.1898 -5.03668,-15.87813 -6.47681,-17.31826 -0.32803,-0.32803 -1.88167,0.0682 -3.45252,0.88053 -1.57086,0.81232 -4.98768,1.79659 -7.59293,2.18728 -2.60526,0.39068 -4.73683,1.007 -4.73683,1.36959 0,0.77328 5.8188,16.01145 6.5915,17.2617 0.94406,1.52751 7.39903,0.89743 11.325,-1.10545 z m -5.05095,-23.42092 c 1.61651,-1.46293 1.82107,-2.70604 1.38538,-8.41902 C 120.65428,128.37899 119.82902,127 115.74357,127 c -1.65634,0 -4.78661,-0.53183 -6.95615,-1.18184 -3.26022,-0.97678 -4.11442,-0.93341 -4.92326,0.25 -1.48709,2.17577 -0.28433,15.64163 1.66249,18.61286 1.52331,2.32486 2.14697,2.51078 7.05667,2.10363 3.1421,-0.26057 6.17575,-1.16163 7.28223,-2.16297 z m 0.8034,-20.87168 c 0.43284,-0.6875 1.62626,-3.72051 2.65204,-6.74003 1.7698,-5.2096 1.77581,-5.54162 0.11771,-6.5 -0.96105,-0.55548 -3.26588,-2.30548 -5.12186,-3.88887 -3.32145,-2.83366 -3.40717,-2.84937 -5.45375,-1 C 110.27561,107.95924 106,116.25149 106,118.93157 c 0,3.89693 12.63594,8.04756 14.66895,4.81843 z m 11.52557,-20.74951 c 2.36801,-2.74973 4.81078,-4.999729 5.42836,-4.999999 C 139.7882,97.999544 148,93.895215 148,92.813915 c 0,-1.615032 -9.8957,-0.218278 -12.01006,1.69519 -1.59255,1.441237 -1.78172,1.395132 -2.29268,-0.558788 -0.67175,-2.568782 -2.8996,-2.11188 -9.69726,1.988783 -5.61028,3.384379 -6.43785,6.78473 -2.42037,9.94488 3.99617,3.14338 5.86089,2.63684 10.61489,-2.88349 z m 62.40965,-25.729657 c -1.01652,-1.016515 -1.85525,0.513892 -1.02122,1.863382 0.63003,1.019417 0.86558,1.020206 1.2043,0.004 0.2316,-0.694785 0.14921,-1.535121 -0.18308,-1.867413 z" fill="#c61517"/>
    <path id="layer-3" d="M 0,189.5 V 0 H 183 366 V 189.5 379 H 183 0 Z m 198.69992,147.75 c -0.23016,-15.89502 -0.49445,-18.68792 -1.73571,-18.34232 -0.80532,0.22422 -5.73921,0.59378 -10.96421,0.82125 -7.78081,0.33873 -10.56889,0.0387 -15.40655,-1.65768 -3.2486,-1.13919 -6.4376,-2.07125 -7.08667,-2.07125 -0.86143,0 -1.21998,5.26589 -1.32771,19.5 -0.0812,10.725 0.23297,19.5 0.69811,19.5 0.46514,0 4.25829,-2.25 8.42923,-5 4.17093,-2.75 8.39954,-5 9.3969,-5 1.94444,0 13.22617,7.00518 15.2936,9.49628 0.68639,0.82704 1.63645,1.50372 2.11125,1.50372 0.47479,0 0.74109,-8.4375 0.59176,-18.75 z m -14.72797,-28.30241 c -0.60413,-1.12882 -0.95655,-2.78902 -0.78317,-3.68933 0.27159,-1.41024 1.76897,-1.60425 10.81323,-1.40102 20.53205,0.46135 36.65348,-4.57399 51.89726,-16.20953 14.79004,-11.2892 26.12338,-30.42337 32.05396,-54.11694 3.00006,-11.98574 3.236,-14.22935 3.72411,-35.41361 0.64793,-28.12116 1.79987,-33.24963 9.04307,-40.26001 5.70673,-5.5233 7.31272,-6.38871 13.52959,-7.2906 2.6168,-0.37963 4.74977,-1.22295 4.7495,-1.87782 -2.8e-4,-0.6538 -0.90028,-3.55606 -2,-6.44946 -3.12294,-8.21652 -2.29954,-22.67559 1.7505,-30.73927 1.73348,-3.45139 9.32921,-12.893478 13.1517,-16.348584 l 2.5983,-2.348583 -2.71277,0.608291 c -1.49202,0.33456 -5.99522,1.236328 -10.00711,2.003929 -14.933,2.857155 -41.78699,15.746547 -52.84537,25.364747 -2.43911,2.12146 -6.46736,5.23832 -8.95166,6.92637 C 244.84118,131.20002 235,139.84316 235,140.86527 c 0,0.37396 1.50283,1.48925 3.33963,2.47843 4.4452,2.3939 10.66073,10.87341 12.87269,17.56153 3.11661,9.42337 1.90782,22.19065 -3.56243,37.6267 -2.71034,7.64812 -5.00873,14.55265 -7.14629,21.46807 -4.87474,15.77067 -11.22697,32.5 -12.34045,32.5 -1.55754,0 -7.27953,-14.32298 -10.18718,-25.5 -0.50077,-1.925 -5.03775,-15.65 -10.08217,-30.5 -6.55934,-19.30972 -9.2033,-28.48265 -9.28273,-32.20546 -0.10364,-4.85743 0.17921,-5.50135 4.2307,-9.63136 l 4.34178,-4.42591 -6.42369,-1.11863 c -14.04951,-2.44662 -26.3915,-0.83454 -37.89618,4.9499 -7.35237,3.6967 -9.23636,5.93146 -5.00044,5.93146 2.48748,0 10.78105,5.46683 12.13687,8.0002 1.60164,2.99269 7.9592,23.12421 7.98149,25.27378 0.0101,0.97569 -2.66955,7.27569 -5.95481,14 -3.28527,6.72431 -10.84761,22.80102 -16.8052,35.72602 -11.82008,25.64365 -13.15622,27.27558 -15.96552,19.5 -2.00881,-5.56001 -9.69902,-27.09671 -13.74736,-38.5 -1.85495,-5.225 -5.14626,-14.45 -7.31402,-20.5 -2.16776,-6.05 -6.27437,-17.525 -9.1258,-25.5 -2.85144,-7.975 -5.80704,-15.92242 -6.56801,-17.66094 C 99.98141,154.58307 97,139.94246 97,133.32628 c 0,-9.08275 3.34347,-19.3821 9.03322,-27.82628 2.59415,-3.85 5.56043,-7.717082 6.59171,-8.593516 3.76372,-3.198572 18.98713,-10.705492 23.0675,-11.374966 2.30584,-0.378324 4.72344,-1.327684 5.37245,-2.10969 1.93857,-2.335835 -2.49757,-1.776526 -12.56241,1.583872 -8.45828,2.82401 -9.52629,3.510547 -17.66809,11.357402 -9.0654,8.737008 -15.146877,18.435588 -17.016137,27.136898 -3.441286,16.01901 -2.496725,34.62912 2.559517,50.42861 1.332672,4.16426 3.63037,11.62139 5.10601,16.57139 1.47563,4.95 3.99545,12.73602 5.5996,17.30227 3.34887,9.53264 3.44355,10.19773 1.45181,10.19773 -1.81581,0 -2.75011,-1.72487 -6.60691,-12.19741 -3.435016,-9.32725 -6.714902,-17.88928 -9.692755,-25.30259 -1.104648,-2.75 -2.545579,-6.575 -3.20207,-8.5 -8.277218,-24.27096 -9.465504,-27.02826 -13.767458,-31.94604 -3.759693,-4.29789 -5.428495,-5.34949 -11.337305,-7.14424 -11.73997,-3.56591 -7.756319,-6.56734 5.066547,-3.81732 2.966607,0.63622 6.957877,2.51537 9.557874,4.5 C 81.008415,135.46658 83.238412,137 83.508653,137 83.778894,137 84,135.07502 84,132.72226 84,128.46038 87.839215,115.20397 90.725443,109.5 97.859217,95.401715 112.35801,82.547301 126,78.226095 c 4.125,-1.306625 8.175,-2.621006 9,-2.920845 1.01961,-0.370568 0.2806,-1.101637 -2.30753,-2.282737 -2.09414,-0.955666 -4.30257,-2.232614 -4.90762,-2.837662 -1.7532,-1.753206 0.70148,-3.847096 5.38865,-4.596604 2.27465,-0.363732 4.51916,-0.898299 4.98778,-1.187926 0.46863,-0.289628 -1.50924,-2.115629 -4.39526,-4.05778 -6.19238,-4.16716 -13.98529,-5.789377 -23.99817,-4.995596 -7.76738,0.615766 -12.620062,2.535252 -6.76785,2.67703 5.48832,0.132962 12.5,3.187232 12.5,5.444972 0,1.44794 -1.3349,2.318415 -5.5,3.586493 -9.1347,2.781089 -20.099014,8.319852 -27.5,13.891969 -8.19977,6.173513 -11.5,9.097597 -11.5,10.18928 0,0.433433 2.914528,0.515897 6.476729,0.183254 7.78554,-0.727025 8.808043,0.454021 5.324211,6.149754 -4.399997,7.193573 -10.982832,13.404383 -23.956564,22.602663 l -13.050899,9.25299 6.000292,1.84198 c 10.095522,3.09916 17.48866,11.00798 22.278697,23.83267 3.866458,10.35193 10.205047,27.78045 11.45626,31.5 0.740052,2.2 3.415191,9.625 5.944751,16.5 9.522943,25.88206 13.788313,37.6218 15.078083,41.5 0.73165,2.2 2.73345,7.6 4.44844,12 1.71499,4.4 3.73009,9.8 4.47801,12 4.53897,13.3514 10.70847,30.08648 11.31531,30.69332 0.39109,0.39109 4.45912,1.5838 9.04007,2.65047 l 8.32901,1.93941 -0.62719,-2.49894 c -0.44852,-1.78705 0.96674,-6.24297 4.968,-15.6416 3.07736,-7.22846 5.96902,-13.83752 6.4259,-14.68679 0.45688,-0.84927 4.05449,-8.72427 7.99468,-17.5 3.94018,-8.77573 7.78561,-17.30587 8.54538,-18.95587 0.75977,-1.65 3.25252,-7.275 5.53944,-12.5 4.46928,-10.21111 6.40023,-13.01024 7.9036,-11.45714 0.50957,0.52643 3.41256,8.15714 6.45108,16.95714 3.03852,8.8 6.43032,18.475 7.53733,21.5 12.38611,33.84614 14.71684,41.79777 12.78914,43.63218 -2.94162,2.79925 -23.69412,7.13599 -27.84437,5.81875 -2.11534,-0.67138 -2.29363,-1.74487 -0.76437,-4.60232 1.65061,-3.08419 0.6489,-3.178 -5.72265,-0.53591 -3.2221,1.33611 -8.22087,3.1985 -11.10837,4.13866 -2.8875,0.94016 -5.25,2.03813 -5.25,2.43994 0,0.70767 21.7032,11.0406 23.28518,11.08611 0.43185,0.0124 0.2909,-0.90099 -0.31323,-2.02982 z m 39.44912,-22.29268 c -0.44411,-1.15734 1.957,-8.83378 7.8682,-25.15491 0.7968,-2.2 2.01644,-5.575 2.71032,-7.5 0.69388,-1.925 3.70415,-10.25 6.6895,-18.5 2.98535,-8.25 7.2556,-20.625 9.48945,-27.5 2.23384,-6.875 5.21015,-15.425 6.61402,-19 2.14115,-5.45254 2.54156,-8.062 2.48473,-16.19295 -0.0609,-8.71349 -0.3911,-10.39446 -3.26761,-16.63511 -1.86271,-4.0412 -5.04055,-8.74867 -7.60476,-11.26525 C 245.98221,142.52898 244,140.01319 244,139.31604 c 0,-0.69714 1.6875,-2.74095 3.75,-4.54179 2.0625,-1.80084 5.325,-4.90239 7.25,-6.89234 1.925,-1.98994 5.525,-4.63902 8,-5.88684 2.475,-1.24782 6.3,-3.49895 8.5,-5.0025 C 277.55669,112.85321 298.69206,103 301.5144,103 c 4.80336,0 2.59027,2.89108 -4.84158,6.3248 -6.27843,2.90082 -13.78709,7.82782 -28.44582,18.66549 -1.73166,1.28027 -2.91458,2.7062 -2.62872,3.16874 0.28587,0.46253 3.11438,0.84097 6.28558,0.84097 5.6792,0 16.25915,2.95411 22.92465,6.40098 5.47939,2.8335 3.50956,4.82293 -2.49341,2.51823 -4.20672,-1.61508 -23.50423,-2.81059 -29.009,-1.79715 -7.88149,1.45099 -7.76986,1.22053 -3.93191,8.11756 3.78605,6.80376 7.62581,20.20495 7.62581,26.61494 0,2.21173 0.64073,6.86176 1.42385,10.33339 5.70759,25.30224 0.69667,54.95229 -12.8717,76.16307 -4.69795,7.34407 -15.72499,18.39025 -23.4161,23.45675 -6.90762,4.55037 -7.93286,4.88531 -8.71498,2.84714 z M 243.233,267.03192 c 5.67574,-6.2719 11.27312,-15.40399 10.35358,-16.89183 -0.60653,-0.98138 -9.42966,-3.63035 -10.04439,-3.01562 C 242.73094,247.93572 234,272.14413 234,273.58225 c 0,2.40504 3.15333,0.16792 9.233,-6.55033 z m 13.12347,-22.53125 c 1.74204,-1.74203 5.18703,-10.55038 6.16485,-15.76264 0.64524,-3.43941 0.49675,-3.68817 -3.38339,-5.66766 C 256.90589,221.93166 254.44809,221 253.67616,221 c -1.59588,0 -9.18616,20.36579 -8.19062,21.9766 0.57747,0.93437 5.60812,2.73541 8.19303,2.93321 0.64822,0.0496 1.85327,-0.58451 2.6779,-1.40914 z m 7.77109,-25.15387 c 1.01114,-1.218 1.37244,-5.14409 1.37244,-14.91396 0,-18.87345 -1.07107,-19.0929 -6.98409,-1.43096 -4.37694,13.07374 -4.39533,14.19759 -0.26591,16.25274 4.14485,2.06282 4.24033,2.06432 5.87756,0.0922 z m -83.94914,-50.95435 c -1.65052,-2.54718 -4.19981,-4.43442 -8.81951,-6.52909 -6.97528,-3.16275 -8.06926,-5.59847 -2.25979,-5.03139 4.95553,0.48373 11.49472,3.61851 13.30199,6.37676 0.86339,1.3177 1.85759,3.83479 2.20934,5.59354 0.88624,4.43117 -1.4342,4.21661 -4.43203,-0.40982 z m -18.15093,110.95643 c 4.90808,-3.27758 9.19722,-7.93912 11.5618,-12.56564 1.32589,-2.59421 2.41071,-5.21747 2.41071,-5.82945 0,-1.02714 -2.95571,-0.79193 -8.1166,0.64592 -1.30523,0.36364 -9.8834,16.69965 -9.8834,18.82164 0,1.01968 1.48785,0.62349 4.02749,-1.07247 z m 13.53586,-22.94596 c 2.64994,-1.25748 3.80784,-2.77909 5.44537,-7.15576 1.14387,-3.05727 1.72235,-5.89032 1.28552,-6.29566 -0.43683,-0.40534 -2.27759,-0.50612 -4.09057,-0.22394 -2.83534,0.44129 -3.70941,1.33134 -6.25,6.36422 -4.53349,8.98079 -3.65566,10.75876 3.60968,7.31114 z m -25.59678,-17.52076 c 4.9346,-10.39172 5.20627,-11.35505 4.15977,-14.75 -2.06241,-6.6906 -2.57645,-6.94316 -6.82108,-3.3513 -2.09289,1.77103 -5.49276,4.12899 -7.55526,5.23992 -2.0625,1.11093 -3.75,2.6589 -3.75,3.43995 0,1.1955 2.5859,8.94411 6.10356,18.28927 0.46582,1.2375 1.23769,2.25 1.71528,2.25 0.47758,0 3.24406,-5.00303 6.14773,-11.11784 z m 33.09917,0.0827 c 2.15589,-1.1538 2.55618,-5.19884 0.93613,-9.45989 -1.21491,-3.19548 -2.54418,-2.53609 -4.54607,2.2551 -2.826,6.76356 -2.91531,8.23997 -0.49847,8.23997 1.19579,0 3.04457,-0.46583 4.10841,-1.03518 z m -43.18122,-16.90591 c 2.09266,-1.06759 5.2179,-3.55047 6.94498,-5.5175 l 3.14014,-3.57642 -2.35628,-6.2325 C 143.51425,195.89009 142.13135,193 141.04237,193 c -0.58283,0 -2.88185,1.31997 -5.10894,2.93326 -2.22709,1.6133 -5.37319,3.22405 -6.99134,3.57946 -3.72675,0.81853 -3.71739,1.98011 0.10031,12.44083 4.92374,13.49138 4.66949,13.25441 10.84212,10.10536 z m -4.34708,-29.51967 C 137.75187,190.85021 139,189.05315 139,187.55382 c 0,-2.39938 -5.47852,-16.2919 -7.09962,-18.00333 -0.56172,-0.59301 -2.49536,-0.17412 -5.15023,1.11572 -2.33796,1.13586 -5.71318,2.3864 -7.50049,2.77896 -1.78732,0.39256 -3.24966,1.25075 -3.24966,1.9071 0,1.33468 5.39918,15.65656 7.10139,18.83718 0.90712,1.69497 1.77384,1.95649 5.03462,1.51913 2.16637,-0.29057 5.49702,-1.71677 7.40143,-3.16934 z M 124.9165,168.0426 c 2.11026,-1.07657 4.06442,-2.5505 4.34259,-3.27539 0.45657,-1.1898 -5.03668,-15.87813 -6.47681,-17.31826 -0.32803,-0.32803 -1.88167,0.0682 -3.45252,0.88053 -1.57086,0.81232 -4.98768,1.79659 -7.59293,2.18728 -2.60526,0.39068 -4.73683,1.007 -4.73683,1.36959 0,0.77328 5.8188,16.01145 6.5915,17.2617 0.94406,1.52751 7.39903,0.89743 11.325,-1.10545 z m -5.05095,-23.42092 c 1.61651,-1.46293 1.82107,-2.70604 1.38538,-8.41902 C 120.65428,128.37899 119.82902,127 115.74357,127 c -1.65634,0 -4.78661,-0.53183 -6.95615,-1.18184 -3.26022,-0.97678 -4.11442,-0.93341 -4.92326,0.25 -1.48709,2.17577 -0.28433,15.64163 1.66249,18.61286 1.52331,2.32486 2.14697,2.51078 7.05667,2.10363 3.1421,-0.26057 6.17575,-1.16163 7.28223,-2.16297 z M 203.3033,130.9327 c 2.09182,-0.58088 5.24182,-2.34468 7,-3.91956 l 3.1967,-2.86342 -2.75,-1.05011 C 209.2375,122.52205 208,121.58836 208,121.02475 208,120.46114 206.85572,120 205.45716,120 c -3.21704,0 -11.52273,-7.57597 -16.09659,-14.68237 -2.50194,-3.88726 -4.02588,-5.26174 -6.09804,-5.499998 -3.27479,-0.37653 -4.23546,-4.104807 -1.88572,-7.318274 1.33352,-1.823696 1.75343,-1.880937 4.79239,-0.653282 1.83194,0.740052 5.20346,1.731399 7.49226,2.202992 7.541,1.553775 19.67126,7.283652 23.47749,11.089882 2.50437,2.50437 3.98546,3.33664 4.68783,2.63427 1.83493,-1.83493 6.21693,0.10112 7.58313,3.35036 l 1.28407,3.05389 3.15301,-4.76018 c 3.29124,-4.96887 3.61826,-7.05915 2.22902,-14.247724 C 235.07046,89.966363 233.54687,88.053128 231.8,89.8 c -3.00373,3.003727 -12.93586,0.277348 -18.5572,-5.093967 -2.7455,-2.623382 -3.16396,-3.609351 -2.66368,-6.276072 0.48791,-2.600817 0.0259,-3.810185 -2.59639,-6.796852 C 206.22828,69.634899 204.17119,68 203.41143,68 201.38175,68 192.28735,62.191206 191.62835,60.473892 191.31728,59.663251 189.97124,59 188.63714,59 187.27528,59 184.73982,57.598013 182.85576,55.803173 175.42369,48.723087 162,39.755197 162,41.870182 c 0,2.093686 6.40977,8.303772 10.94049,10.599662 4.39133,2.225258 8.1453,6.777703 6.74424,8.178763 -0.35839,0.358391 -4.90838,-1.222594 -10.11108,-3.513299 -5.20269,-2.290706 -12.74764,-4.894322 -16.76655,-5.785814 -7.6647,-1.700217 -22.67288,-9.074026 -30.26704,-14.87078 l -4.21165,-3.214824 3.95197,5.91812 c 2.17358,3.254965 5.51916,7.13309 7.43461,8.618055 1.91545,1.484964 5.552,4.374684 8.08121,6.4216 2.52921,2.046916 8.33474,5.538917 12.90118,7.760002 C 162.00484,67.481534 161.81068,69 149.8,69 c -5.20974,0 -8.78796,0.373299 -8.25,0.860685 0.5225,0.473377 5.10959,2.561262 10.19353,4.639744 12.23024,5.000122 14.27678,7.557192 7.03075,8.784669 C 156.97343,83.590163 153.7,84.632355 151.5,85.60108 l -4,1.761319 5.39123,0.830899 c 6.32205,0.97436 15.44909,5.568461 15.91348,8.010062 0.24623,1.294632 -0.97374,2.080616 -5.08419,3.275556 -2.97449,0.864704 -6.23269,2.175104 -7.24044,2.911994 -1.59641,1.16732 -0.72405,1.39797 6.77627,1.79163 7.08613,0.37193 9.28369,0.90119 12.4261,2.99267 2.09965,1.39745 5.2833,3.11066 7.07478,3.80712 1.79147,0.69647 6.03701,4.40174 9.43452,8.23396 5.83169,6.57783 6.11588,7.13035 5.07964,9.87568 -1.27061,3.36622 -0.40871,3.62924 6.03191,1.84073 z m 22.33156,-30.00528 c -4.4112,-3.469853 -3.11595,-7.76695 1.95734,-6.493634 3.00063,0.753109 5.01443,5.130348 3.30685,7.187854 -1.52154,1.83334 -2.15755,1.74946 -5.26419,-0.69422 z m -30.045,-16.637147 c -4.33434,-0.676219 -7.68267,-3.268162 -9.33715,-7.227883 -0.81094,-1.940841 -2.33745,-4.625953 -3.39225,-5.966916 -3.20862,-4.079099 -0.61047,-4.311861 7.30546,-0.654478 7.54304,3.485099 15.37666,10.410582 14.56724,12.878488 -0.4172,1.272036 -4.46065,1.70135 -9.1433,0.970789 z m -0.98569,-7.01944 c -1.01652,-1.016515 -1.85525,0.513892 -1.02122,1.863382 0.63003,1.019417 0.86558,1.020206 1.2043,0.004 0.2316,-0.694785 0.14921,-1.535121 -0.18308,-1.867413 z M 120.66895,123.75 c 0.43284,-0.6875 1.62626,-3.72051 2.65204,-6.74003 1.7698,-5.2096 1.77581,-5.54162 0.11771,-6.5 -0.96105,-0.55548 -3.26588,-2.30548 -5.12186,-3.88887 -3.32145,-2.83366 -3.40717,-2.84937 -5.45375,-1 C 110.27561,107.95924 106,116.25149 106,118.93157 c 0,3.89693 12.63594,8.04756 14.66895,4.81843 z m 11.52557,-20.74951 c 2.36801,-2.74973 4.81078,-4.999729 5.42836,-4.999999 C 139.7882,97.999544 148,93.895215 148,92.813915 c 0,-1.615032 -9.8957,-0.218278 -12.01006,1.69519 -1.59255,1.441237 -1.78172,1.395132 -2.29268,-0.558788 -0.67175,-2.568782 -2.8996,-2.11188 -9.69726,1.988783 -5.61028,3.384379 -6.43785,6.78473 -2.42037,9.94488 3.99617,3.14338 5.86089,2.63684 10.61489,-2.88349 z" fill="#a71013"/>
    <path id="layer-4" d="M 0,189.5 V 0 H 183 366 V 189.5 379 H 183 0 Z m 171,163 c 4.4425,-3.025 8.75072,-5.5 9.57382,-5.5 1.72017,0 4.7616,1.83313 12.16463,7.33188 8.19078,6.08387 8.2641,5.93671 8.24624,-16.5505 -0.008,-10.60476 -0.38419,-19.86283 -0.83504,-20.57348 -0.63254,-0.99705 -1.8279,-1.05972 -5.23469,-0.27445 -7.05279,1.62568 -16.69988,1.2314 -24.68357,-1.00882 -4.0679,-1.14146 -8.0341,-1.83058 -8.81378,-1.53139 C 160.25681,314.83868 160,318.717 160,335.80195 c 0,11.47559 0.3,21.16472 0.66667,21.53138 1.19004,1.19005 2.13994,0.74574 10.33333,-4.83333 z m 17,-40.30887 c 0,-0.44488 -0.66069,-1.68238 -1.4682,-2.75 -0.8075,-1.06762 -1.4825,-2.22756 -1.5,-2.57765 -0.0175,-0.35008 6.1557,-0.85553 13.7182,-1.12321 16.1724,-0.57244 22.38291,-2.04643 34.75,-8.2475 15.27322,-7.65826 28.07659,-20.41433 36.23101,-36.09715 5.88905,-11.32602 7.73361,-16.45778 10.76023,-29.93617 2.27958,-10.15158 2.80597,-15.51187 3.48216,-35.45945 0.43814,-12.925 1.31637,-25.17613 1.95164,-27.22474 1.62692,-5.24652 6.89393,-11.74748 11.40477,-14.07665 2.33575,-1.20606 5.94432,-2.00809 9.25,-2.05587 2.98111,-0.0431 5.42019,-0.42086 5.42019,-0.83949 0,-0.41863 -1.125,-4.11246 -2.5,-8.20851 -3.86421,-11.51127 -2.92852,-25.17925 2.29452,-33.51722 3.57631,-5.70915 9.51727,-12.090913 13.73822,-14.75754 2.45503,-1.550989 4.46449,-3.15748 4.46547,-3.56998 0.006,-2.603967 -22.43833,1.745505 -35.3911,6.858353 -10.29676,4.064437 -21.26713,9.787467 -30.10711,15.706297 -12.67435,8.48614 -32.5,24.80328 -32.5,26.74855 0,0.35573 2.06674,1.94953 4.59276,3.54179 12.05409,7.59821 16.92981,22.90346 12.86844,40.39501 -1.83894,7.91994 -19.36906,61.12815 -20.56946,62.43333 -0.47212,0.51334 -1.13716,0.65459 -1.47785,0.31389 -1.00695,-1.00695 -26.37123,-77.90186 -27.05048,-82.00683 -0.50685,-3.06314 -0.12945,-4.47049 2.03728,-7.59709 1.46267,-2.11062 3.77087,-4.43234 5.12935,-5.15938 2.87903,-1.54081 3.22375,-3.62876 0.71996,-4.36078 -18.01793,-5.26778 -41.06772,-1.86418 -53.95781,7.96757 -4.01364,3.06135 -4.17771,4.40222 -0.54219,4.43125 3.96469,0.0317 10.56277,3.28891 13.03897,6.43689 1.17248,1.49056 3.81736,7.83153 5.87751,14.09105 l 3.74575,11.38093 -4.06809,8.78459 c -2.23744,4.83152 -9.62734,20.8272 -16.422,35.54595 -6.79466,14.71875 -12.79172,26.61544 -13.3268,26.43708 -0.53507,-0.17836 -2.00459,-3.22098 -3.26559,-6.76137 -11.42654,-32.08112 -16.92793,-47.40038 -25.87749,-72.05879 -5.71339,-15.74194 -11.3725,-32.16694 -12.57578,-36.5 -4.876275,-17.55958 -1.205599,-33.8059 10.41394,-46.09185 6.20304,-6.558796 14.24215,-11.550691 22.20958,-13.791054 6.22945,-1.751661 13.5,-5.79601 13.5,-7.509574 0,-1.915642 -11.38613,-0.983804 -18.45517,1.510366 C 111.84543,88.388235 98.046298,103.42803 92.299762,122 c -4.059015,13.11815 -3.160376,34.59894 2.154477,51.5 2.87087,9.12927 3.39063,13.70062 1.07332,9.43997 -0.765801,-1.40802 -3.913646,-9.73302 -6.99521,-18.5 -3.081564,-8.76698 -6.553724,-17.8604 -7.715911,-20.2076 -2.042962,-4.12604 -8.071756,-10.45289 -10.924832,-11.46493 -0.765383,-0.2715 -1.102745,-0.8066 -0.749692,-1.18912 1.072565,-1.16207 7.397461,2.01074 11.628693,5.8334 3.909645,3.53213 4.00389,3.55975 4.596782,1.34717 0.332916,-1.24239 0.611446,-4.09949 0.618956,-6.34912 0.02015,-6.03644 5.217348,-20.54811 9.973507,-27.84815 9.420548,-14.459208 24.806128,-24.754428 40.514258,-27.110008 7.17196,-1.075502 6.96013,-2.365769 -0.91335,-5.5633 -2.1827,-0.886428 -4.1393,-2.123928 -4.34799,-2.75 -0.5363,-1.608904 3.46352,-1.424258 4.08238,0.188457 0.28002,0.729723 2.69067,2.116867 5.35699,3.082542 19.40881,7.029382 20.68481,7.890509 14.23632,9.607549 -5.95352,1.585244 -11.7387,4.935923 -12.46314,7.218447 -0.8447,2.661417 -5.28455,4.177992 -7.99095,2.729571 -1.77211,-0.948408 -3.07486,-0.679111 -7.53836,1.558286 C 120.17018,96.894593 118,98.77514 118,101.23191 c 0,2.48164 5.27918,7.76809 7.75741,7.76809 1.05119,0 3.99982,-2.20593 6.55252,-4.90206 3.42576,-3.61825 6.48089,-5.623805 11.66567,-7.657983 C 147.83902,94.924196 151,93.29062 151,92.80979 c 0,-0.480831 -1.0125,-1.320527 -2.25,-1.865992 -1.71693,-0.756784 -0.91793,-0.887849 3.3724,-0.553198 4.8444,0.37787 13.8776,3.710427 13.8776,5.119768 0,0.258346 -2.8125,1.765944 -6.25,3.350217 -5.28502,2.435755 -10.75,6.284445 -10.75,7.570645 0,0.19433 4.68833,0.11405 10.41851,-0.17841 10.07618,-0.51426 10.49511,-0.45146 12.75,1.91119 1.28232,1.34361 4.31137,3.01962 6.73123,3.72446 4.61339,1.34377 13.58964,8.9204 16.07907,13.57193 1.16854,2.18344 1.12644,2.76581 -0.31503,4.35863 -3.19455,3.52993 -2.15519,4.51409 4.00294,3.79032 8.76935,-1.03066 17.43446,-6.51132 18.55941,-11.73876 0.19134,-0.88912 -0.85623,-1.18897 -3.47613,-0.995 -3.25967,0.24134 -3.75,-0.004 -3.75,-1.87843 0,-1.88571 -0.38446,-2.07163 -3.06604,-1.48266 -2.77952,0.61049 -3.59726,0.12731 -8.75059,-5.17054 -3.1265,-3.21418 -7.13751,-7.98146 -8.91335,-10.59396 -2.06249,-3.03419 -3.95869,-4.75 -5.24941,-4.75 -2.34784,0 -2.61873,-1.258718 -0.62669,-2.911962 1.06288,-0.88211 2.19096,-0.826958 4.75,0.232229 1.84584,0.763995 7.18108,2.616112 11.85608,4.115815 9.73307,3.122288 16.99561,7.290108 16.99821,9.754898 0.003,2.55206 1.78036,3.14338 5.19624,1.72848 2.71136,-1.12308 3.23223,-1.05643 4.41811,0.56536 0.74518,1.0191 1.0828,2.88076 0.7575,4.17687 -1.68699,6.7215 8.58435,-2.43978 10.71735,-9.55909 1.5347,-5.122393 -0.17646,-14.649829 -3.15901,-17.588754 -1.9963,-1.967098 -2.07631,-1.970043 -3.44648,-0.126866 -1.93783,2.606813 -8.24321,1.673758 -14.33265,-2.120912 -3.64975,-2.274367 -4.60657,-3.420589 -4.45066,-5.331647 0.35185,-4.312621 -0.67292,-6.900226 -4.34035,-10.959632 C 206.15912,66.540603 203.8782,65 202.47344,65 c -2.09241,0 -11.38996,-6.437879 -12.95525,-8.970568 -0.36101,-0.584131 -1.11418,-0.779127 -1.67369,-0.433325 -0.55952,0.345802 -2.44093,-0.714028 -4.18091,-2.355178 C 181.92362,51.599779 175.775,47.107427 170,43.257926 164.225,39.408424 158.64276,35.300595 157.59501,34.129416 155.4071,31.683748 154,31.388346 154,33.374692 c 0,2.532867 10.84239,16.255235 15.0369,19.03103 5.29374,3.503231 4.60038,4.225022 -1.53307,1.59592 -2.62858,-1.126741 -8.87977,-3.200814 -13.89153,-4.60905 C 141.76343,46.063225 129.13172,39.464249 121,32.355496 c -8.51977,-7.447987 -9.23287,-5.186435 -1.84467,5.850276 6.02215,8.996081 17.03628,18.607537 27.55576,24.04647 3.45483,1.786267 6.28318,3.585258 6.28521,3.997758 0.002,0.4125 -2.28843,0.75 -5.08992,0.75 -4.14363,0 -5.18528,-0.350513 -5.58508,-1.879362 -0.27031,-1.033648 -3.73017,-3.931002 -7.68859,-6.438563 -6.32406,-4.006136 -8.10329,-4.641317 -14.66708,-5.236111 -8.41065,-0.762154 -20.195717,0.723108 -25.801244,3.251711 L 90.5,58.350645 97,59.235602 c 9.29057,1.264885 15.12766,2.881418 14.72849,4.078931 -0.18959,0.568765 -2.56856,1.791146 -5.2866,2.716403 C 93.976794,70.27422 79.881378,79.132111 71.75,87.832138 66.51692,93.431181 65.692923,95.63988 69.25,94.533312 73.964795,93.06659 82,92.709833 82,93.967222 c 0,0.668185 -1.873589,3.885866 -4.163531,7.150398 -4.121132,5.87508 -8.391198,9.40775 -25.836469,21.37474 -4.675,3.20693 -8.946238,6.22681 -9.491641,6.71085 -1.229164,1.09087 1.157729,2.75745 3.991641,2.78705 7.762958,0.0811 18.485525,8.17652 22.94024,17.31965 1.390791,2.85455 5.437099,13.29009 8.991795,23.19009 3.554696,9.9 8.673535,24.075 11.375199,31.5 2.701663,7.425 11.530436,31.725 19.619496,54 8.70605,23.97403 15.48112,41.16534 16.60357,42.13053 2.91772,2.50894 21.9697,7.27121 21.9697,5.49159 0,-0.20783 -0.64889,-1.93087 -1.44197,-3.82898 -1.4086,-3.37127 -1.2966,-3.78475 4.84111,-17.87213 3.45569,-7.93155 10.43832,-23.64601 15.51697,-34.92101 5.07864,-11.275 10.73313,-23.875 12.56552,-28 1.83239,-4.125 3.71114,-7.43416 4.175,-7.35369 1.45925,0.25316 27.74979,75.88707 26.87215,77.30712 -1.52402,2.46591 -22.94613,6.81344 -24.86388,5.04601 -0.4593,-0.4233 -0.0886,-2.21316 0.82374,-3.97747 0.91236,-1.76431 1.37214,-3.49452 1.02174,-3.84493 -0.35041,-0.3504 -3.42109,0.42052 -6.82374,1.71315 -3.40265,1.29264 -9.89914,3.74264 -14.43664,5.44446 -4.5375,1.70181 -8.25,3.66631 -8.25,4.36555 0,1.00877 17.03068,9.93086 24,12.5732 2.30407,0.87356 6,0.82288 6,-0.0823 z m 38,-28.61548 c 0,-1.42345 5.41229,-17.04878 16.99878,-49.07565 10.56607,-29.20626 16.99635,-48.78358 17.93932,-54.61719 2.04508,-12.65169 -2.12733,-26.89448 -10.50136,-35.84698 l -4.70013,-5.02483 3.88169,-3.58422 c 6.25156,-5.77247 15.08456,-12.15757 25.02299,-18.08836 9.92491,-5.92272 15.03358,-6.93353 6.80645,-1.34674 -6.72902,4.56947 -20.44299,15.36969 -20.44561,16.10161 -0.001,0.32631 4.30054,1.05148 9.55936,1.61149 13.3789,1.42471 14.66928,3.27429 2.23735,3.20692 -9.29421,-0.0504 -17.16061,1.24661 -18.24981,3.00896 -0.29447,0.47647 1.21583,4.40174 3.35623,8.72283 4.3122,8.70555 5.85277,14.19843 7.11165,25.35651 0.4654,4.125 1.38714,10.425 2.04832,14 0.66118,3.575 1.24495,12.35 1.29726,19.5 0.0767,10.47912 -0.35805,14.84218 -2.24185,22.5 -5.42297,22.04481 -17.54991,40.35952 -34.30082,51.80277 C 226.53498,285.41308 226,285.57605 226,283.57565 Z M 238.73314,272.75 c 2.17218,-1.7875 5.37737,-5.10254 7.12265,-7.36676 3.11806,-4.04519 9.09055,-14.22978 9.12609,-15.56228 0.0292,-1.09527 -11.1785,-4.03397 -11.96648,-3.13765 C 241.84301,248.01689 233,272.36299 233,274.25718 c 0,2.50465 1.26068,2.17323 5.73314,-1.50718 z m 19.63018,-29.5 C 260.00019,240.06809 264,227.43107 264,225.44146 c 0,-1.5051 -8.61851,-5.66876 -10.81641,-5.22549 -0.79576,0.16049 -3.0647,4.99448 -5.21641,11.11358 -3.75551,10.68002 -3.78157,10.85606 -1.88763,12.75 1.32165,1.32165 3.31556,1.92045 6.39477,1.92045 3.87146,0 4.66493,-0.37053 5.889,-2.75 z m 7.34137,-26 c 1.20974,-5.70409 0.98363,-27.96197 -0.29707,-29.24251 -0.78977,-0.78968 -1.37223,-0.73424 -2.10258,0.20013 -1.38655,1.77387 -9.30504,25.4435 -9.30504,27.81424 0,2.25651 4.36095,4.8812 8.20469,4.9381 2.32849,0.0345 2.8153,-0.48155 3.5,-3.70996 z M 226,98 c 0,-0.55 0.42344,-1 0.94098,-1 0.51754,0 1.2191,0.45 1.55902,1 0.33992,0.55 -0.0835,1 -0.94098,1 C 226.70156,99 226,98.55 226,98 Z M 195.75525,79.5 c 0.5689,-2.975987 1.36867,-3.125539 3.58976,-0.671259 C 201.66017,81.386959 201.42697,82 198.13867,82 c -2.51286,0 -2.80312,-0.304465 -2.38342,-2.5 z m -7.36486,-3.108086 c -0.82915,-1.984447 -1.25054,-3.865098 -0.93641,-4.179224 0.31412,-0.314126 2.25298,0.263385 4.30858,1.283357 2.7512,1.365128 3.27565,1.959535 1.98744,2.252549 -0.9625,0.218929 -1.75,1.265056 -1.75,2.324728 0,3.130086 -1.98572,2.205109 -3.60961,-1.68141 z M 162.02749,280.3507 c 8.0444,-5.36607 15.71268,-16.2514 14.5975,-20.72154 -0.35538,-1.42452 0.25854,-2.88723 1.85503,-4.41974 2.68921,-2.58145 5.87705,-11.11535 5.00299,-13.3931 -0.31572,-0.82274 0.12145,-2.07309 0.97148,-2.77855 C 185.30452,238.33231 186,236.84992 186,235.74357 186,232.23464 183.73116,226 182.45423,226 c -0.67606,0 -2.46813,2.91511 -3.98239,6.47803 -2.18302,5.13645 -2.50607,6.7758 -1.55987,7.9159 0.96406,1.16162 0.78282,1.56816 -0.94334,2.11603 -1.38607,0.43992 -3.16105,2.96127 -5.05265,7.17731 -3.50397,7.80968 -3.52861,8.1504 -0.66598,9.21007 2.09782,0.77656 2.02256,0.88288 -1.11276,1.572 -3.02683,0.66527 -3.73752,1.55286 -7.11414,8.88488 C 157.10589,280.03152 156.51234,282 158.21011,282 c 0.73968,0 2.45751,-0.74219 3.81738,-1.6493 z m -11.34881,-41.00491 c 5.38628,-11.33155 5.50405,-11.76208 4.25373,-15.5506 -0.70726,-2.14302 -1.84628,-4.66113 -2.53114,-5.59579 -1.15525,-1.57663 -1.44951,-1.53555 -4.07324,0.56865 -4.50389,3.61208 -9.95389,7.64075 -11.91625,8.80855 -1.7181,1.02245 -1.66653,1.50033 1.02517,9.5 3.3675,10.00811 5.23981,13.9234 6.65825,13.9234 0.5741,0 3.53667,-5.24439 6.58348,-11.65421 z m -8.51751,-17.59476 c 2.01365,-1.11071 4.67326,-3.38839 5.91026,-5.06152 2.04558,-2.76679 2.14366,-3.43625 1.08387,-7.39868 C 147.54762,203.27988 142.33388,192 141.1632,192 c -0.52922,0 -3.30266,1.575 -6.1632,3.5 -2.86054,1.925 -6.06988,3.5 -7.13187,3.5 -1.062,0 -2.19355,0.68445 -2.51457,1.52101 -0.61097,1.59218 4.89723,18.30537 7.34245,22.27872 1.58388,2.57372 3.2282,2.39154 9.46516,-1.0487 z m -9.86151,-26.368 C 136.84758,193.08519 140,189.96285 140,187.75617 c 0,-2.38197 -5.83666,-16.78264 -7.55333,-18.63618 -1.08143,-1.16765 -1.94876,-1.05534 -5.63638,0.7298 -2.39706,1.1604 -5.84866,2.40788 -7.67023,2.7722 -1.82158,0.36431 -3.52569,1.21938 -3.78693,1.90015 -0.5109,1.33139 6.001,18.99471 7.8034,21.16646 1.47496,1.77722 5.27199,1.65032 9.14313,-0.30557 z m -6.63752,-26.92518 c 2.43715,-1.42827 4.33625,-3.29048 4.33419,-4.25 -0.005,-2.17945 -5.35413,-15.96565 -6.72837,-17.33989 -0.71754,-0.71754 -1.99482,-0.54345 -4.13582,0.56371 -1.70372,0.88103 -5.14271,1.88217 -7.64221,2.22476 -2.49949,0.3426 -4.7709,0.98917 -5.04757,1.43683 -0.54553,0.8827 5.20045,16.61257 6.81515,18.65674 1.6325,2.06671 7.76281,1.42813 12.40463,-1.29215 z m -7.79025,-21.56303 c 4.58319,-1.59771 5.0571,-3.28334 3.62531,-12.89482 -0.74831,-5.02341 -0.90227,-8.95353 -0.37641,-9.60885 0.48939,-0.60986 1.78643,-3.71494 2.88231,-6.90017 1.9867,-5.77443 1.56184,-8.49098 -1.32794,-8.49098 -0.59397,0 -2.55872,-1.43328 -4.3661,-3.18507 l -3.28616,-3.18507 -2.38037,2.23624 c -3.38528,3.1803 -7.83672,11.75268 -7.4607,14.36744 0.1921,1.33574 1.90315,3.13943 4.31817,4.55194 2.43276,1.42289 3.02047,2.04461 1.5,1.5868 -5.25306,-1.58169 -7.27848,-1.0533 -8.15583,2.12772 -1.26379,4.58215 0.13123,15.19901 2.3713,18.0468 2.16611,2.75376 7.1126,3.2806 12.65642,1.34802 z" fill="#000000"/>
  </g>
  <rect id="rounded-border" x="5.5" y="13.5" width="355" height="358" rx="77" ry="77" fill="none" stroke="#4b4b4b" stroke-width="1.8" vector-effect="non-scaling-stroke"/>
</svg>
