<svg xmlns="http://www.w3.org/2000/svg" viewBox="0 0 64 64" role="img" aria-labelledby="title"><title id="title">Watchverse dragon W</title><rect width="64" height="64" rx="18" fill="#111112"/><path d="M10 19c3-7 9-11 17-11l-4 6 7 3-8 8-6-4-4 5Z" fill="#c02a38"/><path d="m14 19 8-3M21 14l3-6" fill="none" stroke="#f2e6dc" stroke-width="2" stroke-linecap="round"/><circle cx="21" cy="15" r="1.2" fill="#111112"/><path d="M11 22c5 1 9 5 12 11l9 14 9-14c3-6 7-10 12-11l-4 13-6-3 3 14-10-5-4 10-4-10-10 5 3-14-6 3Z" fill="#8e1624"/><path d="M18 29 24 46 32 35 40 46 46 29 41 51 32 42 23 51Z" fill="#f2e6dc"/><path d="M24 53h16l-8 8Z" fill="#c02a38"/><path d="M18 30h5M18 36h6M41 30h5M40 36h6" stroke="#111112" stroke-width="2" stroke-linecap="round"/></svg>
