<svg xmlns="http://www.w3.org/2000/svg" viewBox="0 0 64 64" role="img" aria-labelledby="title desc"><title id="title">Watchverse dragon W</title><desc id="desc">Drago rosso stilizzato che forma una W cinematografica.</desc><rect width="64" height="64" rx="18" fill="#111112"/><path d="M10 42c4-3 6-8 7-14l2-11c1-5 5-9 11-10l-3 7 7 2-8 8-6-3-3 9c-1 5-3 9-7 12Z" fill="#c02a38"/><path d="m15 20 8-3M22 14l4-6M25 17l6 1" fill="none" stroke="#f2e6dc" stroke-width="2" stroke-linecap="round"/><circle cx="27" cy="17" r="1.2" fill="#111112"/><path d="M12 30c6 1 10 5 13 12l7 12 7-12c3-7 7-11 13-12-1 5-3 10-7 14l-3 4 8 0-8 6-10-14-10 14-8-6 8 0-3-4c-4-4-6-9-7-14Z" fill="#8e1624"/><path d="M18 34c3 3 5 7 7 12l7 10 7-10c2-5 4-9 7-12l-5 16-9-10-9 10Z" fill="#f2e6dc"/><path d="M26 56h12l-6 7Z" fill="#c02a38"/><path d="M18 34h6M17 39h7M40 34h6M40 39h7" stroke="#111112" stroke-width="2" stroke-linecap="round"/></svg>
