<svg xmlns="http://www.w3.org/2000/svg" viewBox="0 0 64 64" role="img" aria-labelledby="title"><title id="title">Watchverse dragon W</title><rect width="64" height="64" rx="18" fill="#111112"/><path d="M10 18 18 47 27 27 32 43 37 27 46 47 54 18" fill="none" stroke="#8e1624" stroke-width="6" stroke-linecap="round" stroke-linejoin="round"/><path d="M9 19c2-7 7-11 14-12l-3 5 6 2-7 8-5-3-4 4Z" fill="#c02a38"/><path d="m14 17 6-2M19 13l3-4" fill="none" stroke="#f2e6dc" stroke-width="2" stroke-linecap="round"/><circle cx="18" cy="14" r="1" fill="#111112"/><path d="M21 49h22l-11 10Z" fill="#f2e6dc"/><path d="M18 29h4M18 35h5M42 29h4M41 35h5" stroke="#f2e6dc" stroke-width="2" stroke-linecap="round"/></svg>
