<svg xmlns="http://www.w3.org/2000/svg" viewBox="0 0 64 64" role="img" aria-labelledby="title"><title id="title">Watchverse dragon W</title><rect width="64" height="64" rx="18" fill="#111112"/><path d="M11 17c4 4 7 8 9 14l4 12 8-16 8 16 4-12c2-6 5-10 9-14-2 9-4 15-8 20l-5 10 8 0-7 6-9-13-9 13-7-6 8 0-5-10c-4-5-6-11-8-20Z" fill="#d94b3e"/><path d="M32 27c-2-5 0-9 5-11-1 3 1 5 4 6-2 5-5 7-9 7Z" fill="#fff"/><circle cx="37" cy="23" r="1.2" fill="#111112"/><path d="M18 24h5M18 29h6M41 24h5M40 29h6" stroke="#fff" stroke-width="2" stroke-linecap="round"/><path d="M28 51h8l-4 6Z" fill="#fff"/></svg>
