<svg xmlns="http://www.w3.org/2000/svg" viewBox="0 0 64 64" role="img" aria-labelledby="title"><title id="title">Watchverse dragon W</title><rect width="64" height="64" rx="18" fill="#111112"/><path d="M8 17c5 1 10 4 14 9l10 14 10-14c4-5 9-8 14-9l-5 14-6-3 3 14-10-5-6 11-6-11-10 5 3-14-6 3Z" fill="#8e1624"/><path d="M17 24 24 43 32 31 40 43 47 24 41 49 32 39 23 49Z" fill="#f2e6dc"/><path d="M9 19c1-8 7-13 15-14l-4 6 7 2-8 8-5-3-4 5Z" fill="#c02a38"/><path d="m13 18 7-2M19 13l3-5" fill="none" stroke="#f2e6dc" stroke-width="2" stroke-linecap="round"/><circle cx="19" cy="14" r="1.2" fill="#111112"/><path d="M22 50h20l-10 9Z" fill="#8e1624"/><path d="M18 29h4M18 35h5M42 29h4M41 35h5" stroke="#111112" stroke-width="2" stroke-linecap="round"/></svg>
