<svg xmlns="http://www.w3.org/2000/svg" viewBox="0 0 1600 1000" role="img" aria-label="Parete scura infestata dal cordyceps con finestra invasa dall'edera e luce del tramonto">
  <defs>
    <linearGradient id="wall" x1="0" y1="0" x2="1" y2="1">
      <stop stop-color="#070908"/>
      <stop offset=".42" stop-color="#121611"/>
      <stop offset=".78" stop-color="#1c2118"/>
      <stop offset="1" stop-color="#302619"/>
    </linearGradient>
    <linearGradient id="sun" x1="0" y1="0" x2="0" y2="1">
      <stop stop-color="#efbd72"/>
      <stop offset=".45" stop-color="#b96d35"/>
      <stop offset="1" stop-color="#34261a"/>
    </linearGradient>
    <radialGradient id="glow" cx=".55" cy=".42" r=".8">
      <stop stop-color="#ffd79a" stop-opacity=".78"/>
      <stop offset=".32" stop-color="#d98d45" stop-opacity=".3"/>
      <stop offset="1" stop-color="#b35e27" stop-opacity="0"/>
    </radialGradient>
    <linearGradient id="fungus" x1="0" y1="0" x2="1" y2="1">
      <stop stop-color="#d8ab69"/>
      <stop offset=".35" stop-color="#976b3e"/>
      <stop offset=".7" stop-color="#4a3524"/>
      <stop offset="1" stop-color="#1b1711"/>
    </linearGradient>
    <filter id="grain" x="-10%" y="-10%" width="120%" height="120%">
      <feTurbulence baseFrequency=".58" numOctaves="4" seed="23" type="fractalNoise"/>
      <feColorMatrix values="1 0 0 0 0  0 1 0 0 0  0 0 1 0 0  0 0 0 .22 0"/>
    </filter>
    <filter id="shadow" x="-40%" y="-40%" width="180%" height="180%">
      <feDropShadow dx="0" dy="16" stdDeviation="18" flood-color="#000" flood-opacity=".72"/>
    </filter>
    <filter id="blur"><feGaussianBlur stdDeviation="18"/></filter>
  </defs>

  <rect width="1600" height="1000" fill="url(#wall)"/>
  <rect width="1600" height="1000" filter="url(#grain)" opacity=".48"/>

  <!-- cracks and infected veins -->
  <g fill="none" stroke-linecap="round" opacity=".72">
    <path d="M0 780C130 710 170 620 260 570S390 480 470 350 560 195 690 155" stroke="#2f3a28" stroke-width="22"/>
    <path d="M72 1000C128 850 210 796 320 730S455 604 522 506 654 410 812 360" stroke="#645036" stroke-width="8"/>
    <path d="M87 1000C143 852 213 808 332 746S472 608 535 518 668 424 825 373" stroke="#b77943" stroke-width="2.5"/>
    <path d="M255 570c-8-92 29-156 109-214M382 492c48-26 96-38 147-34M468 354c-13-67 4-119 55-162M540 503c63 24 120 22 170-6M659 421c41-34 87-50 137-47" stroke="#69563c" stroke-width="7"/>
    <path d="M255 570c-8-92 29-156 109-214M382 492c48-26 96-38 147-34M468 354c-13-67 4-119 55-162M540 503c63 24 120 22 170-6M659 421c41-34 87-50 137-47" stroke="#c28a4f" stroke-width="1.8"/>
  </g>

  <!-- sunset window -->
  <g transform="translate(900 70)" filter="url(#shadow)">
    <rect x="0" y="0" width="590" height="760" rx="8" fill="#0b0d0a" stroke="#66563e" stroke-width="18"/>
    <rect x="32" y="30" width="526" height="700" fill="url(#sun)" stroke="#171913" stroke-width="10"/>
    <rect x="32" y="30" width="526" height="700" fill="url(#glow)"/>
    <path d="M208 28v704M382 28v704M30 260h530M30 500h530" stroke="#151713" stroke-width="22"/>
    <path d="M208 30l17 115-31 64 24 91-22 82 18 111-32 74 29 165M382 30l-28 128 25 79-32 93 31 91-24 107 30 96-14 108" fill="none" stroke="#3b3a2d" stroke-width="7" opacity=".7"/>
    <path d="M30 588c106-44 175-6 257-51 88-48 156-42 273 24v171H30z" fill="#172018" opacity=".82"/>
    <path d="M72 615c78-87 139-60 191-132 43-59 95-52 153-11 52 36 92 23 142-30v290H72z" fill="#202a1e" opacity=".74"/>
    <!-- ivy -->
    <g fill="none" stroke="#576745" stroke-width="12" stroke-linecap="round">
      <path d="M485 0c-22 83-63 142-123 198s-54 120-12 178 20 122-39 190-63 112-46 194"/>
      <path d="M553 44c-77 48-113 105-106 171s-14 122-77 167-88 101-68 169"/>
    </g>
    <g fill="#3d5236" stroke="#82915f" stroke-width="2">
      <path d="M438 117c-31-38-59-40-86-8 37 7 62 9 86 8Z"/><path d="M420 154c31-36 60-37 88-2-35 4-64 5-88 2Z"/>
      <path d="M356 244c-36-30-66-25-88 15 38-1 66-7 88-15Z"/><path d="M352 286c25-40 54-47 88-20-34 11-63 18-88 20Z"/>
      <path d="M326 410c-38-28-67-20-86 21 37-4 65-12 86-21Z"/><path d="M319 452c23-42 51-51 87-26-34 13-62 22-87 26Z"/>
      <path d="M282 604c-42-20-69-7-80 38 35-11 62-24 80-38Z"/><path d="M278 650c18-45 44-58 83-38-32 18-59 30-83 38Z"/>
    </g>
  </g>

  <!-- dominant cordyceps bloom -->
  <g transform="translate(340 500)" filter="url(#shadow)">
    <g fill="none" stroke-linecap="round">
      <path d="M0 310c28-139 81-242 159-308M47 300c3-126 36-239 108-333M88 300c54-137 126-230 217-278M134 314c84-109 170-175 270-202M-36 314c-12-108 10-202 75-282" stroke="#5f4931" stroke-width="28"/>
      <path d="M0 310c28-139 81-242 159-308M47 300c3-126 36-239 108-333M88 300c54-137 126-230 217-278M134 314c84-109 170-175 270-202M-36 314c-12-108 10-202 75-282" stroke="#a67643" stroke-width="8"/>
    </g>
    <g fill="url(#fungus)" stroke="#d3a86a" stroke-width="3">
      <path d="M98-34c67-61 145-54 201 18-77 11-144 5-201-18Z"/>
      <path d="M148 41c57-68 134-76 202-19-73 23-140 29-202 19Z"/>
      <path d="M225 92c62-50 126-39 173 31-66 2-124-8-173-31Z"/>
      <path d="M43 50c54-53 116-48 165 15-64 9-118 4-165-15Z"/>
      <path d="M-38 44c45-54 103-55 152 0-57 15-108 15-152 0Z"/>
      <path d="M-67 121c50-48 108-41 151 18-59 7-109 1-151-18Z"/>
      <path d="M39 137c64-58 137-53 189 20-73 10-136 3-189-20Z"/>
      <path d="M111 203c57-59 127-58 184 7-67 17-129 15-184-7Z"/>
      <path d="M-25 226c52-49 114-42 160 21-62 8-115 1-160-21Z"/>
    </g>
    <g fill="#e0bd7c" opacity=".52">
      <ellipse cx="202" cy="-19" rx="38" ry="8"/><ellipse cx="228" cy="22" rx="34" ry="7"/>
      <ellipse cx="103" cy="62" rx="30" ry="6"/><ellipse cx="25" cy="51" rx="27" ry="6"/>
      <ellipse cx="111" cy="151" rx="37" ry="7"/><ellipse cx="173" cy="211" rx="31" ry="6"/>
    </g>
  </g>

  <!-- subtle Firefly stencil and moth/fern etching -->
  <g transform="translate(110 135)" opacity=".19" fill="#d7d2bd">
    <path d="M95 24 15 6 68 58 5 74l84 30 15 70 15-70 84-30-63-16 53-52-80 18-9-24zM94 104h20v78H94z"/>
  </g>
  <g transform="translate(1370 850)" opacity=".13" fill="none" stroke="#ead7ad" stroke-width="5" stroke-linecap="round" stroke-linejoin="round">
    <path d="M0 70c35-63 66-75 101-111M18 53l-34-15M34 31 3 5M52 11 30-20M70-9 58-41"/>
    <path d="M-35 28 0 8l25 19-18 30-17 27-17-27zM-18 27-56 7l-28 21 21 29 19 27 17-27M-8 28v82M-8 16l-13-21M-8 16 5-6"/>
  </g>

  <!-- vignette -->
  <rect width="1600" height="1000" fill="none" stroke="#000" stroke-width="120" opacity=".32"/>
  <ellipse cx="1180" cy="350" rx="520" ry="410" fill="#e39a55" opacity=".08" filter="url(#blur)"/>
</svg>
