<svg xmlns="http://www.w3.org/2000/svg" viewBox="0 0 140 140">
  <g fill="none" stroke-linecap="round">
    <circle cx="70" cy="70" r="58" stroke="#6e5a3c" stroke-width="3" stroke-dasharray="3 8"/>
    <circle cx="70" cy="70" r="50" stroke="#a88756" stroke-width="1.4" stroke-dasharray="1 5"/>
    <path d="M47 118c1-31 9-55 24-74M63 119c0-38 11-68 32-88M79 118c8-33 22-55 42-70M34 117c-7-23-3-44 10-63" stroke="#8c6540" stroke-width="6"/>
  </g>
  <g fill="#a97849" stroke="#d0ae75" stroke-width="1.5">
    <path d="M61 35c16-17 35-17 52 0-20 6-37 6-52 0Z"/><path d="M36 48c14-15 31-14 46 2-17 5-32 4-46-2Z"/>
    <path d="M77 55c18-16 38-14 54 5-20 4-38 2-54-5Z"/><path d="M25 70c15-13 31-11 45 6-17 3-32 1-45-6Z"/>
    <path d="M58 79c18-17 39-14 55 6-21 4-39 2-55-6Z"/>
  </g>
</svg>
