<svg xmlns="http://www.w3.org/2000/svg" viewBox="0 0 96 96">
  <g fill="none" stroke="#d1b079" stroke-width="3" stroke-linecap="round" stroke-linejoin="round">
    <path d="M18 82c2-23 8-40 20-53M33 83c-2-29 5-52 21-68M48 83c3-30 14-51 31-65M61 84c5-22 15-36 29-44"/>
    <path d="M10 45c10-12 23-14 36-4-12 7-24 8-36 4Zm23-18c11-13 25-13 38-1-13 6-26 6-38 1Zm18 18c12-14 28-14 41 0-15 7-29 7-41 0ZM2 62c11-11 24-10 36 2-13 5-25 4-36-2Zm42 10c12-12 26-10 39 3-14 5-27 4-39-3Z" fill="#8f6540"/>
  </g>
  <g fill="#e0c090" opacity=".48"><ellipse cx="28" cy="42" rx="10" ry="2.5"/><ellipse cx="53" cy="27" rx="11" ry="2.5"/><ellipse cx="70" cy="45" rx="12" ry="3"/></g>
</svg>
